<svg fill="none" height="48" viewBox="0 0 48 48" width="48" xmlns="http://www.w3.org/2000/svg"><g stroke="#4c00c9" stroke-linecap="round" stroke-linejoin="round" stroke-width="4"><path d="m32 16c3.1826 0 6.2348 1.2643 8.4853 3.5147 2.2504 2.2505 3.5147 5.3027 3.5147 8.4853v14h-8v-14c0-1.0609-.4214-2.0783-1.1716-2.8284-.7501-.7502-1.7675-1.1716-2.8284-1.1716s-2.0783.4214-2.8284 1.1716c-.7502.7501-1.1716 1.7675-1.1716 2.8284v14h-8v-14c0-3.1826 1.2643-6.2348 3.5147-8.4853 2.2505-2.2504 5.3027-3.5147 8.4853-3.5147z"/><path d="m12 18h-8v24h8z"/><path d="m8 12c2.2091 0 4-1.7909 4-4 0-2.20914-1.7909-4-4-4-2.20914 0-4 1.79086-4 4 0 2.2091 1.79086 4 4 4z"/></g></svg>