<svg fill="none" height="39" viewBox="0 0 170 39" width="170" xmlns="http://www.w3.org/2000/svg" xmlns:xlink="http://www.w3.org/1999/xlink"><linearGradient id="a" gradientUnits="userSpaceOnUse" x1=".749855" x2="169.335" y1="23.5583" y2="23.5583"><stop offset="0" stop-color="#444bef"/><stop offset="1" stop-color="#823df3"/></linearGradient><path clip-rule="evenodd" d="m4.88247 33.4996c2.12725 2.0953 4.89614 3.5058 8.30663 4.2318l9.1373-12.5716-8.9708-12.3903h7.8377l5.5447 7.9399 4.3789-7.9399h7.1917v-12.7695h-9.6397-19.09175-9.57715v19.385c0 6.2038 1.62749 10.9087 4.88247 14.1146zm25.39143 2.32c-2.6103 1.4734-5.8251 2.2926-9.6445 2.4578l6.1086-8.6167zm8.0347-16.4346c0 5.1549-1.1535 9.29-3.4606 12.4053l-4.8192-6.6305 8.2798-11.4359zm103.2414 5.8657v-18.02135h-3.698v7.27225c-.375-.6203-.906-1.1019-1.591-1.4447-.686-.3591-1.445-.5387-2.277-.5387-1.078 0-2.033.2694-2.865.808-.816.5224-1.461 1.2733-1.934 2.2527-.457.9631-.686 2.0813-.686 3.3545 0 1.2733.229 2.4078.686 3.4035.473.9794 1.126 1.7467 1.958 2.3017.833.5386 1.78.808 2.841.808.865 0 1.64-.1796 2.326-.5387.685-.3591 1.216-.857 1.591-1.4936v1.8364zm-4.383-3.5504c-.49.6203-1.192.9304-2.106.9304s-1.624-.3183-2.13-.9549c-.506-.6529-.759-1.5671-.759-2.7424 0-1.1426.253-2.0241.759-2.6444s1.216-.9305 2.13-.9305c.898 0 1.592.3184 2.081.955.506.6203.759 1.5099.759 2.6689 0 1.1753-.244 2.0813-.734 2.7179zm-60.5802 2.9627c.9958.5224 2.1547.7836 3.477.7836 1.3059 0 2.4485-.2612 3.4279-.7836.9795-.5223 1.7303-1.2732 2.2527-2.2526.5387-.9794.808-2.1221.808-3.428s-.2693-2.4485-.808-3.428c-.5224-.9794-1.2732-1.7303-2.2527-2.2526-.9794-.5224-2.122-.7836-3.4279-.7836-1.3223 0-2.4812.2612-3.477.7836-.9794.5223-1.7384 1.2732-2.2771 2.2526-.5224.9795-.7836 2.1221-.7836 3.428s.2612 2.4486.7836 3.428c.5387.9794 1.2977 1.7303 2.2771 2.2526zm5.5582-2.9382c-.4734.604-1.1671.9059-2.0812.9059-1.9099 0-2.8648-1.2161-2.8648-3.6483 0-1.2079.2448-2.1139.7345-2.7179.4897-.6203 1.1998-.9304 2.1303-.9304.9141 0 1.6078.3101 2.0812.9304.4897.604.7346 1.51.7346 2.7179 0 1.2243-.2449 2.1384-.7346 2.7424zm-24.3954-8.8883v12.4142h-3.5994v-1.8119c-.3917.6529-.9059 1.1508-1.5425 1.4936-.6367.3428-1.3549.5142-2.1548.5142-1.5507 0-2.7097-.4326-3.4769-1.2978-.7672-.8651-1.1508-2.171-1.1508-3.9176v-7.3947h3.6973v7.4681c0 1.5018.6448 2.2527 1.9343 2.2527.7672 0 1.3875-.2612 1.8609-.7835.4734-.5224.7101-1.208.7101-2.0568v-6.8805zm15.6817 12.4142h-4.3585l-3.0117-3.7953-3.0117 3.7953h-4.3339l5.2399-6.3907-4.9216-6.0235h4.3584l2.6689 3.4525 2.6689-3.4525h4.3829l-4.9216 6.0235zm35.4327-12.1405-4.908 12.1405h-3.11l-2.816-7.1987-2.6934 7.1987h-3.1341l-5.0196-12.4142h3.7708l2.9872 8.0068 2.9628-8.0068h2.522l2.9873 8.0803 2.987-8.0803h3.345.23 3.639l3.183 8.0558 3.281-8.0558h3.649l-5.73 13.0753c-.702 1.5834-1.591 2.7424-2.669 3.4769-1.061.7509-2.367 1.2325-3.917 1.4447l-.857-2.8403c1.142-.2449 1.999-.555 2.57-.9305.588-.3754 1.045-.9223 1.372-1.6405l.367-.808zm17.799 8.1983v3.9422h-3.991v-3.9422zm29.012-1.9588h-8.178c.065 1.159.367 2.0078.906 2.5465.539.5223 1.338.7835 2.399.7835.637 0 1.274-.1061 1.91-.3183.637-.2122 1.225-.5224 1.763-.9304l.98 2.4975c-.588.4734-1.323.8488-2.204 1.1263-.865.2612-1.738.3918-2.62.3918-2.089 0-3.73-.5713-4.922-1.714-1.191-1.159-1.787-2.7342-1.787-4.7257 0-1.2569.253-2.3751.759-3.3545.522-.9958 1.249-1.763 2.179-2.3017.931-.555 1.984-.8325 3.159-.8325 1.747 0 3.126.5714 4.138 1.714 1.012 1.1263 1.518 2.6526 1.518 4.5788zm-5.558-4.236c-.702 0-1.273.204-1.714.6121-.425.4081-.702 1.0039-.833 1.7875h4.922c-.196-1.5997-.988-2.3996-2.375-2.3996zm14.423 10.137 5.46-12.3897h-3.648l-3.281 8.0313-3.183-8.0313h-3.869l5.387 12.3897z" fill="url(#a)" fill-rule="evenodd"/></svg>